<svg xmlns="http://www.w3.org/2000/svg" xmlns:xlink="http://www.w3.org/1999/xlink" viewBox="0 0 117.6 120.65"><defs><style>.cls-1{fill:#f9b233;}.cls-2{clip-path:url(#clip-path);}.cls-3{fill:#004b74;}.cls-4{fill:#013958;}.cls-5{fill:#dda778;}.cls-6{fill:#f9bb8d;}</style><clipPath id="clip-path" transform="translate(-238.7 -360.67)"><path class="cls-1" d="M356.3,419.47a58.8,58.8,0,1,1-58.8-58.8A58.79,58.79,0,0,1,356.3,419.47Z"/></clipPath></defs><path class="cls-1" d="M356.3,419.47a58.8,58.8,0,1,1-58.8-58.8A58.79,58.79,0,0,1,356.3,419.47Z" transform="translate(-238.7 -360.67)"/><g class="cls-2"><path class="cls-3" d="M332.15,455.45c-3.95-4.61-35.2-14.72-35.2-14.72s-30.59,11.19-35.2,14.72-6.33,25.88-6.33,25.88h82.16S336.1,460.06,332.15,455.45Z" transform="translate(-238.7 -360.67)"/><path class="cls-4" d="M311.18,447.2,297,452.63l-14.23-5.43v-7.26a48.82,48.82,0,0,1,14.58-2.28,41.53,41.53,0,0,1,13.88,2.28Z" transform="translate(-238.7 -360.67)"/><polygon class="cls-5" points="70.34 79.86 58.25 85.29 46.16 79.86 46.16 70.32 70.34 70.32 70.34 79.86"/><path d="M321.32,412.27V399.15c0-18.38-7.36-30.71-24-30.71s-24,12.33-24,30.71v13.12a71.36,71.36,0,0,0,7-6.82c1.52-1.71-3.64-11.13-2.07-15.09,1.91-4.8,6.79-8.22,6.79-8.22s2,2.34,11,3.16c9.18.84,12.37-4.21,12.37-4.21s.78,21,2.83,23.74A20.58,20.58,0,0,0,321.32,412.27Z" transform="translate(-238.7 -360.67)"/><path class="cls-6" d="M322.53,406.77c0,4.08-2.9,9.7-4.85,9.7s-3.54-3.31-3.54-7.4a8.76,8.76,0,0,1,3.54-7.4C319.57,400.19,322.53,401.67,322.53,406.77Z" transform="translate(-238.7 -360.67)"/><path class="cls-6" d="M271.9,406.77c0,4.08,2.9,9.7,4.86,9.7s3.53-3.31,3.53-7.4a8.76,8.76,0,0,0-3.53-7.4C274.86,400.19,271.9,401.67,271.9,406.77Z" transform="translate(-238.7 -360.67)"/><path class="cls-6" d="M297.3,374.36c-13.73,0-19.8,9.62-19.8,24v18c0,2.62,1,9.42,2,11.51,3.25,6.7,12.88,14.14,17.44,14.14s15.4-7.35,18-13.73c1-2.46,2.22-10,2.22-13.08V398.33C317.1,384,311,374.36,297.3,374.36Z" transform="translate(-238.7 -360.67)"/><path d="M317.1,408.58l1.23-7.46c.88-16.94-7.3-29.46-21-29.46S276.1,386,276.63,401.12l.87,7.46s0-5.6,2.79-8.56c1.25-1.34,0-5.46,1.28-8.55,1.57-3.75,5.6-6.41,5.6-6.41s1.67,1.82,9,2.46c7.57.66,10.2-3.29,10.2-3.29s4.51.34,7,6.13c1.6,3.74.37,5.47.25,7.81S317.1,408.58,317.1,408.58Z" transform="translate(-238.7 -360.67)"/></g></svg>